<?xml version="1.0" encoding="iso-8859-1"?>
<!-- Uploaded to: SVG Repo, www.svgrepo.com, Generator: SVG Repo Mixer Tools -->
<svg height="800px" width="800px" version="1.1" id="Layer_1" xmlns="http://www.w3.org/2000/svg" xmlns:xlink="http://www.w3.org/1999/xlink"
	 viewBox="0 0 496.162 496.162" xml:space="preserve">

<path style="fill:#D3D3D3;" d="M229.787,246.881v248.608c6.041,0.44,12.139,0.673,18.29,0.673c5.371,0,10.696-0.19,15.983-0.527
	V246.881H229.787z"/>
<path style="fill:#EAEAEA;" d="M229.787,246.881v248.608c6.041,0.44,12.139,0.673,18.29,0.673V246.881H229.787z"/>
<path style="fill:#E5E5E5;" d="M248.081,32.082c-52.079,0-94.304,24.952-94.304,55.732v253.533c0,30.78,42.225,55.732,94.304,55.732
	s94.304-24.952,94.304-55.732V87.814C342.385,57.034,300.16,32.082,248.081,32.082z"/>
<path style="fill:#3B3B3B;" d="M248.081,42.082c-45.05,0-81.575,23.585-81.575,52.679v239.64c0,29.094,36.525,52.679,81.575,52.679
	s81.575-23.585,81.575-52.679V94.761C329.656,65.667,293.131,42.082,248.081,42.082z"/>
<circle class="light first" style="fill:#EA4949;" cx="248.081" cy="116.581" r="43"/>
<circle class="light second" style="fill:#2BBF60;" cx="248.081" cy="317.081" r="43"/>
<circle class="light third" style="fill:#EAB42D;" cx="248.081" cy="217.081" r="43"/>

</svg>
